<?xml version="1.0" encoding="UTF-8"?>
<svg version="1.1" xmlns="http://www.w3.org/2000/svg" width="411" height="407">
<path d="M0 0 C135.63 0 271.26 0 411 0 C411 134.31 411 268.62 411 407 C275.37 407 139.74 407 0 407 C0 272.69 0 138.38 0 0 Z " fill="#212121" transform="translate(0,0)"/>
<path d="M0 0 C4.20020471 3.62598317 5.8100718 6.29914612 7.0625 11.6875 C7.21968506 12.36321045 7.37687012 13.0389209 7.53881836 13.73510742 C9.74105911 23.68941032 11.07752183 33.82483259 12.54296875 43.90722656 C13.06187676 47.41872585 13.62275881 50.92198095 14.19384766 54.42529297 C16.06609597 65.91420213 17.54652506 77.45165089 19 89 C20.1446875 88.81824219 21.289375 88.63648437 22.46875 88.44921875 C33.57057847 86.7456426 44.69559721 85.44363926 55.875 84.375 C57.12474609 84.25213623 58.37449219 84.12927246 59.66210938 84.00268555 C78.69684632 82.24214225 97.78114805 81.81322483 116.88891602 81.81469727 C120.06475002 81.81249844 123.24024182 81.79419664 126.41601562 81.77539062 C136.68893963 81.74656262 146.87923826 81.97982142 157.1171875 82.87109375 C158.0111171 82.9467305 158.90504669 83.02236725 159.82606506 83.10029602 C168.06415312 83.90543515 176.38028085 85.59764512 182.125 92.0625 C185.99490644 98.12535341 187.12544611 102.76498931 186 110 C181.33162804 119.88596415 170.72537306 126.04316598 161.5 131 C150.06676121 137.30770808 138.99944734 144.09455233 127.984375 151.10253906 C125.12990379 152.91740738 122.26876818 154.72129737 119.40625 156.5234375 C101.89631352 167.59534689 84.70037118 179.14087939 67.48046875 190.65625 C66.22970551 191.49178154 66.22970551 191.49178154 64.95367432 192.3441925 C61.34197648 194.75803001 57.73396903 197.17640525 54.14306641 199.62109375 C53.0607373 200.35457031 51.9784082 201.08804688 50.86328125 201.84375 C49.95489502 202.46443359 49.04650879 203.08511719 48.1105957 203.72460938 C46 205 46 205 44 205 C47.23192669 219.29792452 51.03235329 233.34999697 55.22607422 247.39453125 C56.21837721 250.73518031 57.17524231 254.08450929 58.125 257.4375 C61.51607845 269.34234988 65.01865599 281.20767935 68.74609375 293.01171875 C69.60720952 295.73914641 70.45189203 298.47096808 71.28515625 301.20703125 C71.60613281 302.25395142 71.60613281 302.25395142 71.93359375 303.32202148 C72.52193808 305.24259117 73.10680145 307.16422623 73.69140625 309.0859375 C74.89562937 312.83352979 76.36162644 316.45409647 77.8425293 320.09960938 C79.95366371 325.38969096 81.92190169 330.73342496 83.89160156 336.07739258 C84.38154683 337.40353937 84.87407229 338.7287357 85.36914062 340.05297852 C90.36984333 353.43051797 96.35664358 369.56504241 90 383.5625 C85.95282062 390.36130276 80.68296269 394.97372413 73 397 C64.77545231 397.95039218 57.55816737 398.00529487 50.59765625 393.1015625 C49.74042969 392.40804688 48.88320313 391.71453125 48 391 C47.45456543 390.56010742 46.90913086 390.12021484 46.34716797 389.66699219 C39.88979747 384.41013201 33.70689748 378.91685134 27.921875 372.92285156 C26.09891906 371.09896933 24.22155579 369.40973498 22.265625 367.73046875 C18.11942058 364.12986779 14.11359881 360.39844821 10.125 356.625 C4.96403572 351.76380822 -0.23046221 346.95253542 -5.51953125 342.23046875 C-8.49553322 339.55441028 -11.43696289 336.84259822 -14.375 334.125 C-14.92349609 333.61775391 -15.47199219 333.11050781 -16.03710938 332.58789062 C-16.58560547 332.08064453 -17.13410156 331.57339844 -17.69921875 331.05078125 C-25.23132854 324.08529505 -32.80211167 317.16477158 -40.4375 310.3125 C-43.30600973 307.72384488 -46.15418597 305.11352113 -49 302.5 C-50.01170877 301.57420785 -51.02342744 300.64842651 -52.03515625 299.72265625 C-53.97081967 297.94992959 -55.89215536 296.16492273 -57.80859375 294.37109375 C-59.10990234 293.16646484 -59.10990234 293.16646484 -60.4375 291.9375 C-61.19933594 291.22464844 -61.96117187 290.51179688 -62.74609375 289.77734375 C-65.08453572 287.93333839 -67.19354514 286.95528358 -70 286 C-70.86238281 286.70382812 -71.72476563 287.40765625 -72.61328125 288.1328125 C-80.49924742 294.52636424 -88.53453352 300.65913389 -96.73535156 306.64282227 C-102.2584533 310.68442668 -107.68196357 314.83338309 -113.0625 319.0625 C-119.63281936 324.21901657 -126.31609802 329.17758375 -133.10961914 334.03540039 C-138.80062542 338.11148286 -144.41106672 342.28526206 -150 346.5 C-156.53308699 351.4155152 -163.0813797 356.30792153 -169.6875 361.125 C-170.74614258 361.90520508 -170.74614258 361.90520508 -171.82617188 362.70117188 C-179.83745356 368.5103003 -187.38360162 373.52764404 -197.5546875 373.41015625 C-202.73690094 372.54093515 -207.01406477 369.28136362 -210.41796875 365.37109375 C-213.69084683 360.65673147 -214.18033112 356.68826212 -214.25 351.0625 C-214.28867188 349.22365234 -214.28867188 349.22365234 -214.328125 347.34765625 C-213.90290129 336.99068569 -209.75605734 327.18012496 -205.9375 317.6875 C-205.21276489 315.86750488 -205.21276489 315.86750488 -204.47338867 314.01074219 C-198.2765025 298.51301113 -191.78456081 283.17135567 -184.171875 268.3125 C-182.49766197 265.02689618 -180.90223129 261.70970755 -179.328125 258.375 C-175.08960348 249.40152787 -170.859249 240.45537131 -166.08203125 231.75390625 C-165.75658325 231.15982971 -165.43113525 230.56575317 -165.0958252 229.95367432 C-163.50975451 227.06685941 -161.90613343 224.1915599 -160.28076172 221.32666016 C-159.70729004 220.29460449 -159.13381836 219.26254883 -158.54296875 218.19921875 C-158.02758545 217.29002686 -157.51220215 216.38083496 -156.98120117 215.4440918 C-155.82822663 213.10063454 -155.82822663 213.10063454 -156.18139648 210.83007812 C-157.56947622 207.72687333 -160.28051014 205.89279312 -162.875 203.8125 C-163.46216797 203.32910156 -164.04933594 202.84570312 -164.65429688 202.34765625 C-166.42908226 200.8894542 -168.21353198 199.44385078 -170 198 C-171.83366903 196.50041039 -173.66702808 195.00044162 -175.5 193.5 C-176.82451172 192.42105469 -176.82451172 192.42105469 -178.17578125 191.3203125 C-182.48024946 187.78386144 -186.73500266 184.1903413 -190.97265625 180.57421875 C-192.80078643 179.01971838 -194.63909204 177.47692467 -196.49609375 175.95703125 C-201.60233481 171.71276116 -204.45596499 168.3246584 -205.5625 161.5625 C-204.80123293 156.7411419 -202.7844022 154.02893385 -199 151 C-192.23163411 147.23806591 -185.0497835 144.59431139 -177.8125 141.875 C-177.18561279 141.63833618 -176.55872559 141.40167236 -175.9128418 141.15783691 C-161.71296266 135.80180491 -147.38077036 130.84842221 -133 126 C-131.96182129 125.6488916 -130.92364258 125.2977832 -129.85400391 124.93603516 C-127.00800365 123.97466789 -124.16077764 123.01709705 -121.3125 122.0625 C-120.50619141 121.79211914 -119.69988281 121.52173828 -118.86914062 121.24316406 C-114.79452651 119.88896417 -110.70746256 118.57753452 -106.60546875 117.30859375 C-105.7961792 117.05779053 -104.98688965 116.8069873 -104.15307617 116.54858398 C-102 116 -102 116 -99 116 C-98.72091797 115.26442871 -98.44183594 114.52885742 -98.15429688 113.77099609 C-96.36208485 109.46862587 -93.90736993 105.60688712 -91.5 101.625 C-91.02046875 100.81933594 -90.5409375 100.01367188 -90.046875 99.18359375 C-85.74822283 92.03763848 -81.12401907 85.1198962 -76.47503662 78.20007324 C-73.73358555 74.11109467 -71.01116619 70.00943715 -68.28515625 65.91015625 C-66.4860107 63.20759564 -64.68648785 60.5052865 -62.88696289 57.80297852 C-61.67202998 55.97805921 -60.45751074 54.15286443 -59.2434082 52.32739258 C-51.98778105 41.41902011 -44.68637192 30.54759576 -37.22827148 19.77644348 C-35.46782252 17.23031413 -33.71631084 14.67805516 -31.96476746 12.12579346 C-24.27185679 1.03832351 -13.67928734 -9.01589393 0 0 Z " fill="#00ACED" transform="translate(220,7)"/>
<path d="M0 0 C0.13986328 0.74531982 0.27972656 1.49063965 0.42382812 2.25854492 C3.51132133 18.63541303 6.78565459 34.96178549 10.3125 51.25 C10.48894043 52.06721527 10.66538086 52.88443054 10.84716797 53.72640991 C11.3501888 56.05250034 11.85602949 58.37795391 12.36328125 60.703125 C12.58948906 61.74642723 12.58948906 61.74642723 12.82026672 62.81080627 C13.43307863 65.60054889 14.09581012 68.28743036 15 71 C15.76953125 74.1796875 15.76953125 74.1796875 15 78 C11.63173357 81.27057396 7.64524513 83.63623945 3.6875 86.125 C2.46415234 86.92000337 1.24260289 87.71777947 0.02270508 88.51806641 C-2.72765853 90.32014291 -5.48517944 92.11062097 -8.24609375 93.89648438 C-16.545553 99.28920033 -24.71979129 104.87179314 -32.91708374 110.41790771 C-35.77936227 112.35260129 -38.64462235 114.28279129 -41.51098633 116.21142578 C-42.41764038 116.8218573 -43.32429443 117.43228882 -44.25842285 118.06121826 C-45.96064825 119.2072152 -47.66325765 120.35264206 -49.36633301 121.49737549 C-53.96352291 124.59568017 -58.50422669 127.75615257 -63 131 C-65.78823237 129.71076019 -67.98996602 128.31380469 -70.28515625 126.27734375 C-70.89246582 125.74351074 -71.49977539 125.20967773 -72.12548828 124.65966797 C-73.08430908 123.80719482 -73.08430908 123.80719482 -74.0625 122.9375 C-75.41432914 121.7501222 -76.76719963 120.56392895 -78.12109375 119.37890625 C-78.78351074 118.79898926 -79.44592773 118.21907227 -80.12841797 117.62158203 C-83.44048029 114.7519345 -86.84867152 112.00367611 -90.25390625 109.24609375 C-93.38989425 106.68109645 -96.47756776 104.06344246 -99.5625 101.4375 C-104.95657897 96.84936837 -110.43695118 92.38262762 -116 88 C-115.41225315 84.10710299 -114.24525703 81.29642531 -112.26953125 77.90234375 C-111.71716797 76.94263672 -111.16480469 75.98292969 -110.59570312 74.99414062 C-110.00724609 73.98544922 -109.41878906 72.97675781 -108.8125 71.9375 C-107.60847522 69.84371255 -106.4066207 67.74867548 -105.20703125 65.65234375 C-104.6653833 64.71382568 -104.12373535 63.77530762 -103.56567383 62.80834961 C-101.47182225 59.05260742 -99.58557709 55.20841817 -97.7109375 51.33984375 C-94.09263293 44.27671496 -90.11849409 37.40753906 -86.1328125 30.546875 C-84.27867695 27.33825379 -82.57004505 24.17405898 -81.1171875 20.765625 C-79.18420765 16.63819943 -77.51650494 13.11160143 -73.16503906 11.18945312 C-68.04170959 9.64092267 -62.77663922 9.08032527 -57.4765625 8.45849609 C-53.4892325 7.93263895 -49.548777 7.24497666 -45.59375 6.51953125 C-44.85720184 6.38480911 -44.12065369 6.25008698 -43.36178589 6.11128235 C-41.85990238 5.83594213 -40.35810198 5.56014813 -38.85638428 5.28390503 C-8.83232172 -0.21805638 -8.83232172 -0.21805638 0 0 Z " fill="#262627" transform="translate(203,124)"/>
<path d="M0 0 C0.24121582 0.9429895 0.24121582 0.9429895 0.48730469 1.9050293 C4.42580106 17.33311689 4.42580106 17.33311689 8.9453125 32.59765625 C10.33019548 37.06518617 11.60047925 41.56244572 12.875 46.0625 C16.59362319 59.15831606 20.47876628 72.20083968 24.5625 85.1875 C25.16593851 87.11713399 25.76814107 89.04714404 26.36914062 90.97753906 C26.81103955 92.39421504 27.25524525 93.81017259 27.70117188 95.22558594 C28.41501782 97.50157445 29.11504769 99.78144114 29.8125 102.0625 C30.14133179 103.098302 30.14133179 103.098302 30.47680664 104.1550293 C31.8039544 108.55190889 32.20851395 112.41865061 32 117 C29.88671875 117.8046875 29.88671875 117.8046875 27 118 C24.68352712 116.45163674 22.83669257 114.99460246 20.8125 113.125 C20.24442627 112.62194336 19.67635254 112.11888672 19.09106445 111.60058594 C17.38102043 110.08086681 15.68971264 108.54225416 14 107 C13.07960938 106.17757812 12.15921875 105.35515625 11.2109375 104.5078125 C9.55093996 103.02255154 7.89583478 101.53180132 6.24609375 100.03515625 C1.82408057 96.02842779 -2.68161813 92.1209629 -7.22265625 88.25 C-13.76549102 82.67025027 -20.22443702 77.03075869 -26.56640625 71.22265625 C-32.83463293 65.49774295 -39.31420397 60.01579788 -45.76538086 54.49951172 C-50.56250045 50.39103923 -55.30402263 46.22389499 -60 42 C-49.4054949 33.4312129 -38.37488856 25.47482286 -27.11328125 17.8125 C-22.62521555 14.75586927 -18.18479955 11.63324608 -13.75 8.5 C-12.67697632 7.74299805 -12.67697632 7.74299805 -11.58227539 6.97070312 C-8.89772962 5.07216865 -6.23191197 3.18122922 -3.640625 1.15625 C-2 0 -2 0 0 0 Z " fill="#222324" transform="translate(228,238)"/>
<path d="M0 0 C3.40829937 1.61817175 5.79530758 3.47765964 8.5625 6.0625 C12.12296928 9.33018473 15.7393292 12.46479193 19.5 15.5 C23.94910173 19.09927331 28.2014963 22.86052798 32.4296875 26.71484375 C36.82962481 30.62664212 41.41246931 34.31078806 46 38 C41.82686725 42.46525205 37.18857879 45.97927731 32.25 49.5625 C31.41090088 50.17601318 30.57180176 50.78952637 29.70727539 51.42163086 C23.63146127 55.85054196 17.50756647 60.20926244 11.35107422 64.52514648 C6.92605334 67.62884273 2.53701093 70.77720499 -1.83325195 73.95751953 C-8.27525441 78.64473342 -14.7499878 83.26155335 -21.375 87.6875 C-21.98746582 88.09758301 -22.59993164 88.50766602 -23.23095703 88.93017578 C-31.03616888 94.09179344 -31.03616888 94.09179344 -34.625 93.75 C-37 93 -37 93 -39 91 C-39.71215285 84.83322584 -37.90566733 80.66106114 -35.3125 75.25 C-34.91385742 74.39148438 -34.51521484 73.53296875 -34.10449219 72.6484375 C-32.75395975 69.75692604 -31.38028417 66.87742273 -30 64 C-29.50741699 62.97197266 -29.01483398 61.94394531 -28.50732422 60.88476562 C-26.3789496 56.45149402 -24.24456343 52.02119953 -22.10107422 47.59521484 C-17.96967449 39.05666763 -13.9272444 30.48048872 -9.9375 21.875 C-9.40157227 20.72 -8.86564453 19.565 -8.31347656 18.375 C-5.49020371 12.27256663 -2.70516287 6.15575721 0 0 Z " fill="#232525" transform="translate(77,228)"/>
<path d="M0 0 C3.45340814 -0.00221467 6.90651023 -0.02050923 10.35986328 -0.03930664 C12.56168512 -0.04223622 14.76350845 -0.04422392 16.96533203 -0.04516602 C18.50901962 -0.05594429 18.50901962 -0.05594429 20.08389282 -0.06694031 C21.03944061 -0.06386368 21.9949884 -0.06078705 22.97949219 -0.05761719 C23.8166275 -0.05904221 24.65376282 -0.06046722 25.51626587 -0.06193542 C28.0109482 0.20799004 29.64416733 0.93468261 31.80126953 2.18530273 C31.28546934 6.69855444 29.88368196 8.87471751 26.80126953 12.18530273 C23.81622832 14.46566851 20.68003174 16.49074061 17.52392578 18.52514648 C16.60276474 19.12855362 15.6816037 19.73196075 14.73252869 20.35365295 C11.78130715 22.2845403 8.82283544 24.20396361 5.86376953 26.12280273 C3.93942949 27.37787757 2.01559653 28.63373024 0.09228516 29.89038086 C-2.78820846 31.77231069 -5.66903319 33.65370341 -8.55184937 35.53207397 C-16.91837701 40.98662961 -25.23453177 46.51476812 -33.53686523 52.06640625 C-34.30572052 52.5792215 -35.07457581 53.09203674 -35.86672974 53.62039185 C-37.49249633 54.71137771 -39.11206892 55.8116263 -40.72677612 56.91891479 C-41.53470612 57.46951569 -42.34263611 58.02011658 -43.17504883 58.58740234 C-43.90034286 59.08622421 -44.6256369 59.58504608 -45.37290955 60.09898376 C-47.19873047 61.18530273 -47.19873047 61.18530273 -49.19873047 61.18530273 C-51.98976624 50.31697941 -54.54767584 39.41244652 -56.91845703 28.44482422 C-57.45679773 25.9605752 -58.00345319 23.47823995 -58.55029297 20.99584961 C-58.89715019 19.39895358 -59.24352298 17.80195224 -59.58935547 16.20483398 C-59.83301849 15.10483818 -59.83301849 15.10483818 -60.081604 13.98262024 C-60.86351617 10.32543489 -61.38708229 6.92810944 -61.19873047 3.18530273 C-57.32381497 2.8717495 -53.44878242 2.55966479 -49.57373047 2.24780273 C-48.49865234 2.16079102 -47.42357422 2.0737793 -46.31591797 1.98413086 C-44.07676942 1.80419928 -41.83733171 1.62783935 -39.59765625 1.45458984 C-37.44387956 1.28395231 -35.2909904 1.10133859 -33.13964844 0.90234375 C-22.1067957 -0.04180242 -11.06622379 -0.00079693 0 0 Z " fill="#242526" transform="translate(304.19873046875,115.814697265625)"/>
<path d="M0 0 C-1.39698376 3.76452156 -3.12995081 7.07984507 -5.203125 10.515625 C-5.84749512 11.59070313 -6.49186523 12.66578125 -7.15576172 13.7734375 C-7.66813385 14.62373535 -7.66813385 14.62373535 -8.19085693 15.49121094 C-14.89184075 26.61871337 -21.36058569 37.85426503 -27.65722656 49.21582031 C-28.20088867 50.19647461 -28.74455078 51.17712891 -29.3046875 52.1875 C-29.77890137 53.04730469 -30.25311523 53.90710938 -30.74169922 54.79296875 C-31.75579749 56.57167429 -32.8642605 58.29639074 -34 60 C-38.43907336 58.55831929 -41.50305266 56.11223005 -44.9375 53.0625 C-49.64091224 48.98412593 -54.40958468 45.02416054 -59.3125 41.1875 C-59.89918457 40.72520996 -60.48586914 40.26291992 -61.09033203 39.78662109 C-64.26132798 37.30250944 -67.48931728 34.96625386 -70.8125 32.6875 C-73.64712895 30.61441315 -73.93798842 30.20928908 -75 26.625 C-75 25.75875 -75 24.8925 -75 24 C-70.99502075 21.15268956 -67.4350504 19.22739449 -62.73046875 17.66796875 C-61.52374512 17.26521729 -60.31702148 16.86246582 -59.07373047 16.44750977 C-57.77853529 16.02684404 -56.48311992 15.60685573 -55.1875 15.1875 C-53.847793 14.74739362 -52.50811233 14.30720709 -51.16845703 13.86694336 C-8.67129187 0 -8.67129187 0 0 0 Z " fill="#252728" transform="translate(109,141)"/>
<path d="M0 0 C2 0.8125 2 0.8125 3.07064819 2.57969666 C4.02779451 4.87927739 4.49236579 6.89117972 4.86962891 9.34985352 C5.00962311 10.24080215 5.14961731 11.13175079 5.29385376 12.04969788 C5.43664764 13.00396164 5.57944153 13.9582254 5.7265625 14.94140625 C5.87910492 15.92745346 6.03164734 16.91350067 6.18881226 17.9294281 C6.50955824 20.01098156 6.82707945 22.09303413 7.14160156 24.17553711 C7.62386483 27.36748664 8.11573717 30.55783863 8.609375 33.74804688 C8.91983276 35.77074716 9.22974714 37.79353095 9.5390625 39.81640625 C9.75932602 41.25083824 9.75932602 41.25083824 9.98403931 42.71424866 C10.11772919 43.60204514 10.25141907 44.48984161 10.38916016 45.40454102 C10.50748199 46.18523453 10.62580383 46.96592804 10.74771118 47.77027893 C11 49.8125 11 49.8125 11 52.8125 C10.3694873 52.9576001 9.73897461 53.1027002 9.08935547 53.25219727 C7.15138323 53.6983654 5.21348411 54.14485114 3.27563477 54.59155273 C0.98467327 55.11935053 -1.30650996 55.64618665 -3.59790039 56.17211914 C-9.47647816 57.52451995 -15.3506986 58.89028928 -21.21514893 60.30256653 C-23.95411952 60.96198025 -26.69442142 61.61577113 -29.43475342 62.26950073 C-30.76833867 62.58945471 -32.1012324 62.91230501 -33.43341064 63.23806763 C-35.30671838 63.69589422 -37.18261115 64.14310404 -39.05859375 64.58984375 C-40.13423584 64.85015381 -41.20987793 65.11046387 -42.31811523 65.37866211 C-45 65.8125 -45 65.8125 -48 64.8125 C-6.96224942 -0.65271088 -6.96224942 -0.65271088 0 0 Z " fill="#212324" transform="translate(188,51.1875)"/>
</svg>
